# Object Export From Tinkercad Server 2015

mtllib obj.mtl

o obj_0
v -93 		44.85 		7.98
v 104.208 		48.071 		8.171
v -93 		44.85 		0.42
v 103.3 		48.725 		8.171
v -87.045 		46.118 		8.354
v -89.984 		-70.145 		8.046
v -87.318 		45.713 		8.354
v -88.805 		-70.764 		8.046
v -89.725 		-69.986 		8.11
v -87.484 		45.287 		8.354
v 106.393 		-66.765 		0.29
v 103.725 		48.986 		8.11
v -90.071 		-70.199 		7.98
v 105.474 		-67.543 		0.229
v 103.984 		49.145 		8.046
v -93 		-65.85 		7.98
v -88.237 		46.491 		8.32
v -88.878 		-70.825 		7.98
v 105.8 		-66.707 		0.229
v -93 		-65.85 		0.42
v 97 		-72 		7.98
v -88.59 		45.967 		8.32
v 97 		-72 		0.42
v 105.91 		-65.85 		0.229
v -88.805 		45.415 		8.32
v 104.694 		-67.388 		0.173
v -83.92 		-66.628 		0.005
v 105.8 		45.707 		8.171
v 104.991 		-66.628 		0.173
v -89.3 		46.824 		8.277
v -83.71 		-66.707 		0.005
v 105.474 		46.543 		8.171
v -83.483 		-66.765 		0.005
v 105.09 		-65.85 		0.173
v -89.725 		46.194 		8.277
v -89.984 		45.53 		8.277
v 106.393 		45.765 		8.11
v -83.245 		-66.8 		0.005
v 106.045 		46.657 		8.11
v -83 		-66.812 		0.005
v -83 		-65.85 		0
v -83 		-72 		7.98
v 103.725 		-67.194 		0.123
v -83 		-72 		0.42
v 97 		44.85 		0
v 103.984 		-66.53 		0.123
v 106.393 		46.727 		8.046
v -83 		44.85 		8.4
v 104.071 		-65.85 		0.123
v -85.939 		-66.437 		0.021
v 97 		-65.85 		0
v 102.59 		-66.967 		0.08
v -84.545 		-66.001 		0.005
v -84.545 		45.001 		8.395
v -84.564 		44.85 		8.395
v -84.564 		-65.85 		0.005
v -84.488 		-66.147 		0.005
v 102.805 		-66.415 		0.08
v 102.878 		-65.85 		0.08
v -86.09 		44.85 		8.379
v -84.394 		-66.287 		0.005
v 105.91 		44.85 		8.171
v -87.54 		44.85 		8.354
v -84.266 		-66.415 		0.005
v -88.878 		44.85 		8.32
v -90.071 		44.85 		8.277
v -84.106 		-66.53 		0.005
v 105.91 		47.642 		0.42
v -83 		44.85 		0
v 105.8 		-68.608 		0.354
v 105.09 		48.465 		0.42
v 106.393 		-67.727 		0.354
v 105.8 		47.608 		0.354
v 104.991 		48.42 		0.354
v -89.3 		48.725 		8.171
v 105.474 		-68.505 		0.29
v 106.045 		-67.657 		0.29
v -89.725 		48.986 		8.11
v -85.753 		-66.713 		0.021
v 105.474 		47.505 		0.29
v -85.5 		-66.967 		0.021
v 104.694 		48.288 		0.29
v 104.939 		-68.338 		0.229
v -85.185 		-67.194 		0.021
v -89.984 		49.145 		8.046
v 104.939 		47.338 		0.229
v -84.816 		-67.388 		0.021
v -84.403 		-67.543 		0.021
v -83 		48.465 		0.08
v -83.92 		48.42 		0.08
v 107 		44.85 		7.98
v 107 		44.85 		0.42
v 105.09 		-69.465 		0.42
v 105.91 		-68.642 		0.42
v -83 		47.642 		0.046
v 104.991 		-69.42 		0.354
v -83.71 		47.608 		0.046
v 103.984 		49.145 		0.354
v 103.725 		48.986 		0.29
v 107 		-65.85 		7.98
v 107 		-65.85 		0.42
v 97 		51 		7.98
v 97 		51 		0.42
v 104.694 		-69.288 		0.29
v -83.92 		-69.42 		0.08
v 103.3 		48.725 		0.229
v -84.106 		49.145 		0.123
v -83 		-69.465 		0.08
v -85.185 		48.986 		0.123
v -83.71 		-68.608 		0.046
v -83 		51 		7.98
v -83 		-68.642 		0.046
v 102.721 		48.368 		0.173
v -84.816 		48.288 		0.08
v -83 		51 		0.42
v 97 		44.85 		8.4
v -85.668 		48.071 		0.08
v -83.955 		-67.657 		0.021
v 104.208 		-69.071 		0.229
v 102.721 		-69.368 		0.173
v -83.483 		-67.727 		0.021
v -84.403 		47.505 		0.046
v 103.545 		-68.775 		0.173
v -85.061 		47.338 		0.046
v 104.208 		48.071 		0.229
v 97 		-65.85 		8.4
v 104.208 		-68.109 		0.173
v -83 		-67.75 		0.021
v -85.668 		47.109 		0.046
v 104.208 		47.109 		0.173
v 103.545 		47.774 		0.173
v 102.721 		-68.406 		0.123
v 102.721 		47.406 		0.123
v -83 		46.75 		0.021
v 103.3 		-67.824 		0.123
v -83.483 		46.727 		0.021
v -85.668 		-69.071 		0.08
v -83.955 		46.657 		0.021
v -84.816 		-69.288 		0.08
v -83 		45.812 		0.005
v -83.245 		45.8 		0.005
v -83.483 		45.765 		0.005
v 102.878 		-70.825 		0.42
v 104.071 		-70.199 		0.42
v 106.393 		46.727 		0.354
v -83.71 		45.707 		0.005
v 102.805 		-70.764 		0.354
v -85.668 		-68.109 		0.046
v -85.061 		-68.338 		0.046
v 103.984 		-70.145 		0.354
v -83.92 		45.628 		0.005
v 106.393 		45.765 		0.29
v 106.045 		46.657 		0.29
v -84.403 		-68.505 		0.046
v 102.59 		-70.582 		0.29
v 103.725 		-69.986 		0.29
v -83 		-65.85 		8.4
v 100.673 		49.283 		8.227
v 105.8 		45.707 		0.229
v 99.5 		49.582 		8.227
v 105.474 		46.543 		0.229
v 103.3 		-69.725 		0.229
v 104.991 		45.628 		0.173
v -84.403 		46.543 		0.021
v 104.694 		46.388 		0.173
v -84.816 		46.388 		0.021
v -85.185 		46.194 		0.021
v 102.237 		-67.491 		0.08
v 100.673 		-67.491 		0.046
v 101.045 		-67.118 		0.046
v -83 		-71.924 		0.354
v 101.318 		-66.713 		0.046
v 101.484 		-66.287 		0.046
v -83 		-71.699 		0.29
v 102.59 		49.582 		8.11
v 102.805 		49.764 		8.046
v 101.54 		-65.85 		0.046
v -83 		-71.33 		0.229
v -83 		-70.825 		0.173
v 104.071 		49.199 		7.98
v -85.5 		45.967 		0.021
v 102.878 		49.825 		7.98
v 103.984 		45.53 		0.123
v -83 		-70.199 		0.123
v 103.725 		46.194 		0.123
v -85.753 		45.713 		0.021
v 102.237 		49.283 		8.171
v 103.3 		46.824 		0.123
v -85.939 		-71.413 		0.29
v -85.939 		45.437 		0.021
v 101.045 		49.732 		8.171
v -83 		49.199 		8.277
v 102.805 		45.415 		0.08
v -84.488 		-71.627 		0.29
v -83 		49.825 		8.227
v 99.939 		-66.437 		0.021
v -84.266 		49.764 		8.227
v 102.59 		45.967 		0.08
v 101.318 		50.061 		8.11
v -85.5 		49.582 		8.227
v 101.484 		50.262 		8.046
v 100.052 		-66.147 		0.021
v -85.753 		-71.061 		0.229
v 99.939 		-66.437 		0.021
v 99.939 		-66.437 		0.021
v 99.939 		-66.437 		0.021
v -84.394 		-71.262 		0.229
v -86.673 		49.283 		8.227
v 101.54 		50.33 		7.98
v -85.5 		-70.582 		0.173
v 100.09 		-65.85 		0.021
v 101.755 		48.875 		0.173
v -84.266 		-70.764 		0.173
v 102 		47.925 		0.123
v 99.753 		50.061 		8.171
v 98.394 		-66.287 		0.005
v 98.394 		50.262 		8.171
v 101.156 		48.368 		0.123
v 99.939 		50.413 		8.11
v -83 		50.33 		8.171
v 98.488 		-66.147 		0.005
v 98.488 		50.627 		8.11
v -85.185 		-69.986 		0.123
v 98.545 		-66.001 		0.005
v -83 		50.699 		8.11
v 101.156 		47.406 		0.08
v -83 		50.924 		8.046
v -84.106 		-70.145 		0.123
v 98.564 		-65.85 		0.005
v 100.455 		47.774 		0.08
v 100.052 		50.627 		8.046
v 98.545 		50.85 		8.046
v -84.394 		50.262 		8.171
v -85.753 		50.061 		8.171
v 100.21 		48.725 		0.123
v 98.403 		-67.543 		0.021
v 100.09 		50.699 		7.98
v 98.816 		-67.388 		0.021
v 98.564 		50.924 		7.98
v -84.106 		45.53 		0.005
v 99.185 		-67.194 		0.021
v -84.488 		50.627 		8.11
v -84.266 		45.415 		0.005
v -85.939 		50.413 		8.11
v 99.5 		-66.967 		0.021
v 99.185 		48.986 		0.123
v -84.394 		45.287 		0.005
v -84.488 		45.147 		0.005
v -84.545 		50.85 		8.046
v 99.753 		-66.713 		0.021
v 99.668 		48.071 		0.08
v 98.816 		48.288 		0.08
v -84.564 		50.924 		7.98
v 99.668 		47.109 		0.046
v -87.755 		48.875 		0.173
v 99.061 		47.338 		0.046
v -87.045 		49.732 		8.171
v -86.21 		48.725 		0.123
v 106.511 		-65.85 		8.11
v 98.403 		47.505 		0.046
v -87.156 		48.368 		0.123
v -87.318 		50.061 		8.11
v 101.156 		-69.368 		0.123
v -86.052 		50.627 		8.046
v -88 		47.925 		0.123
v -84.564 		-71.924 		0.42
v -87.484 		50.262 		8.046
v -84.545 		-71.85 		0.354
v 102 		-68.925 		0.123
v 104.071 		49.199 		0.42
v 102.878 		49.825 		0.42
v 102.805 		49.764 		0.354
v 100.455 		-68.775 		0.08
v -86.455 		47.774 		0.08
v -86.09 		50.699 		7.98
v 102.237 		46.491 		0.08
v -87.484 		-66.287 		0.046
v 101.156 		-68.406 		0.08
v -87.156 		47.406 		0.08
v -87.54 		50.33 		7.98
v 102.59 		49.582 		0.29
v -87.54 		-65.85 		0.046
v 101.755 		46.975 		0.08
v -87.318 		-66.713 		0.046
v 101.755 		-67.975 		0.08
v 106.755 		-66.8 		8.046
v 106.877 		-65.85 		8.046
v -87.045 		-67.118 		0.046
v 101.484 		45.287 		0.046
v -83.92 		-66.628 		8.395
v -83.71 		-66.707 		8.395
v -83.483 		-66.765 		8.395
v -88.237 		49.283 		8.171
v -83.245 		-66.8 		8.395
v -83 		-66.812 		8.395
v 101.318 		45.713 		0.046
v 106.511 		-67.75 		7.98
v -86.673 		-67.491 		0.046
v -88.59 		49.582 		8.11
v 101.54 		50.33 		0.42
v 106.877 		-66.812 		7.98
v 98.816 		-69.288 		0.08
v 101.484 		50.262 		0.354
v 101.045 		46.118 		0.046
v -86.052 		-66.147 		0.021
v 101.318 		50.061 		0.29
v 99.668 		-69.071 		0.08
v -86.09 		-65.85 		0.021
v -88.805 		49.764 		8.046
v 100.673 		46.491 		0.046
v 102.237 		49.283 		0.229
v 101.045 		49.732 		0.229
v -88.878 		49.825 		7.98
v 98.403 		-68.505 		0.046
v -84.564 		-65.85 		8.395
v -84.545 		-66.001 		8.395
v -89.984 		49.145 		0.354
v -84.488 		-66.147 		8.395
v -90.071 		49.199 		7.98
v -84.394 		-66.287 		8.395
v 99.061 		-68.338 		0.046
v -84.266 		-66.415 		8.395
v -84.106 		-66.53 		8.395
v -89.725 		48.986 		0.29
v 99.668 		-68.109 		0.046
v 100.673 		49.283 		0.173
v -85.939 		-66.437 		8.379
v 100.21 		-67.824 		0.046
v -90.071 		-65.85 		0.123
v -89.984 		-66.53 		0.123
v -89.3 		48.725 		0.229
v -83 		50.924 		0.354
v -89.725 		-67.194 		0.123
v -83 		50.699 		0.29
v 100.09 		50.699 		0.42
v -88.721 		48.368 		0.173
v 100.21 		46.824 		0.046
v 100.052 		50.627 		0.354
v -89.545 		47.774 		0.173
v -83 		50.33 		0.229
v 99.939 		50.413 		0.29
v 99.185 		46.194 		0.021
v -88.878 		-65.85 		0.08
v -88.805 		-66.415 		0.08
v 101.54 		-71.33 		0.42
v 101.484 		-71.262 		0.354
v 98.816 		46.388 		0.021
v -88.721 		47.406 		0.123
v 106.511 		-67.75 		0.42
v -83 		49.825 		0.173
v 106.877 		-66.812 		0.42
v 99.753 		50.061 		0.229
v 106.755 		-66.8 		0.354
v -83 		49.199 		0.123
v 101.318 		-71.061 		0.29
v 98.403 		46.543 		0.021
v 106.877 		-65.85 		0.354
v -88.59 		-66.967 		0.08
v -88.237 		-67.491 		0.08
v 99.5 		49.582 		0.173
v 106.511 		-65.85 		0.29
v 101.045 		-70.732 		0.229
v 102.59 		-66.967 		8.32
v -87.755 		46.975 		0.08
v 102.805 		-66.415 		8.32
v -86.21 		46.824 		0.046
v 102.878 		-65.85 		8.32
v 100.052 		45.147 		0.021
v -85.753 		-66.713 		8.379
v -86.673 		46.491 		0.046
v -84.564 		50.924 		0.42
v 99.939 		45.437 		0.021
v 98.564 		50.924 		0.42
v -85.5 		-66.967 		8.379
v -87.045 		46.118 		0.046
v -88 		-68.925 		0.123
v -84.545 		50.85 		0.354
v 98.545 		50.85 		0.354
v 103.725 		-67.194 		8.277
v 99.753 		45.713 		0.021
v -85.185 		-67.194 		8.379
v -87.318 		45.713 		0.046
v -87.156 		-69.368 		0.123
v 103.984 		-66.53 		8.277
v 99.5 		45.967 		0.021
v -87.484 		45.287 		0.046
v -87.755 		-67.975 		0.08
v -84.816 		-67.388 		8.379
v 102.237 		-70.283 		0.229
v 104.071 		-65.85 		8.277
v 98.488 		50.627 		0.29
v -87.156 		-68.406 		0.08
v -84.488 		50.627 		0.29
v -84.403 		-67.543 		8.379
v 100.673 		-70.283 		0.173
v 98.394 		50.262 		0.229
v 104.694 		-67.388 		8.227
v -86.455 		-68.775 		0.08
v -84.394 		50.262 		0.229
v 104.991 		-66.628 		8.227
v 101.755 		-69.875 		0.173
v 105.09 		-65.85 		8.227
v -84.266 		49.764 		0.173
v 106.511 		44.85 		8.11
v -86.052 		45.147 		0.021
v 106.877 		44.85 		8.046
v -86.21 		-67.824 		0.046
v 106.755 		45.8 		8.046
v 98.488 		45.147 		0.005
v 106.877 		45.812 		7.98
v 98.394 		45.287 		0.005
v -83.955 		-67.657 		8.379
v 106.511 		46.75 		7.98
v 102.721 		-68.406 		8.277
v -83.483 		-67.727 		8.379
v 99.5 		-70.582 		0.173
v 103.3 		-67.824 		8.277
v 106.877 		45.812 		0.42
v -83 		-67.75 		8.379
v 106.511 		46.75 		0.42
v 106.877 		44.85 		0.354
v 102.721 		-69.368 		8.227
v 106.755 		45.8 		0.354
v -89.3 		46.824 		0.123
v -83.71 		-68.608 		8.354
v 99.185 		-69.986 		0.123
v -85.939 		50.413 		0.29
v -83 		-68.642 		8.354
v -89.725 		46.194 		0.123
v 100.21 		-69.725 		0.123
v 103.545 		-68.775 		8.227
v -89.545 		-68.775 		0.173
v -85.753 		50.061 		0.229
v -83.92 		-69.42 		8.32
v 104.208 		-68.109 		8.227
v -89.984 		45.53 		0.123
v -83 		-69.465 		8.32
v -88.721 		-69.368 		0.173
v 106.511 		44.85 		0.29
v -85.5 		49.582 		0.173
v -88.237 		46.491 		0.08
v -89.3 		-67.824 		0.123
v 100.052 		-71.627 		0.354
v -88.59 		45.967 		0.08
v -88.721 		-68.406 		0.123
v -88.805 		45.415 		0.08
v 98.488 		-71.627 		0.29
v 100.673 		-67.491 		8.354
v 99.939 		-71.413 		0.29
v -86.09 		50.699 		0.42
v -87.54 		50.33 		0.42
v 101.045 		-67.118 		8.354
v -86.052 		50.627 		0.354
v 101.318 		-66.713 		8.354
v -85.668 		-68.109 		8.354
v 101.484 		-66.287 		8.354
v -87.484 		50.262 		0.354
v -84.545 		45.001 		0.005
v 101.54 		-65.85 		8.354
v -85.061 		-68.338 		8.354
v 105.91 		44.85 		0.229
v 98.394 		-71.262 		0.229
v -84.564 		44.85 		0.005
v -84.403 		-68.505 		8.354
v 105.09 		44.85 		0.173
v 99.753 		-71.061 		0.229
v 102.237 		-67.491 		8.32
v 102.721 		47.406 		8.277
v 104.071 		44.85 		0.123
v 104.208 		47.109 		8.227
v -85.668 		-69.071 		8.32
v 103.545 		47.774 		8.227
v -84.816 		-69.288 		8.32
v 102.878 		44.85 		0.08
v -90.071 		44.85 		0.123
v 102.721 		48.368 		8.227
v -88.878 		44.85 		0.08
v -87.54 		44.85 		0.046
v 101.54 		44.85 		0.046
v -86.09 		44.85 		0.021
v -87.318 		50.061 		0.29
v 98.564 		-71.924 		0.42
v 100.09 		-71.699 		0.42
v 100.09 		44.85 		0.021
v 98.545 		-71.85 		0.354
v -85.185 		-69.986 		8.277
v -87.045 		49.732 		0.229
v 98.564 		44.85 		0.005
v 98.545 		45.001 		0.005
v -84.106 		-70.145 		8.277
v 102.805 		45.415 		8.32
v -83 		-70.199 		8.277
v 102.59 		45.967 		8.32
v -86.673 		49.283 		0.173
v -85.5 		-70.582 		8.227
v 103.984 		45.53 		8.277
v -84.266 		-70.764 		8.227
v 103.725 		46.194 		8.277
v -90.208 		47.109 		8.227
v -83 		-70.825 		8.227
v 98.394 		-66.287 		8.395
v 98.488 		-66.147 		8.395
v 98.545 		-66.001 		8.395
v 97 		-66.812 		8.395
v 103.3 		46.824 		8.277
v 98.564 		-65.85 		8.395
v 97.245 		-66.8 		8.395
v -87.755 		-69.875 		0.173
v -86.673 		-70.283 		0.173
v -90.694 		46.388 		8.227
v 104.991 		45.628 		8.227
v -86.09 		-65.85 		8.379
v -86.052 		-66.147 		8.379
v -90.991 		45.628 		8.227
v 99.939 		-66.437 		8.379
v -86.21 		-69.725 		0.123
v 97 		49.199 		8.277
v 104.694 		46.388 		8.227
v -91.09 		44.85 		8.227
v 100.052 		-66.147 		8.379
v 98.266 		49.764 		8.227
v 97 		49.825 		8.227
v 100.09 		-65.85 		8.379
v -87.54 		-71.33 		0.42
v -87.484 		-71.262 		0.354
v 97 		50.33 		8.171
v 98.403 		-67.543 		8.379
v -90.208 		48.071 		8.171
v -86.052 		-71.627 		0.354
v 97 		50.699 		8.11
v 98.816 		-67.388 		8.379
v -90.939 		47.338 		8.171
v 101.156 		47.406 		8.32
v -87.318 		-71.061 		0.29
v -87.54 		-65.85 		8.354
v 97 		50.924 		8.046
v -87.484 		-66.287 		8.354
v -90.694 		48.288 		8.11
v 100.455 		47.774 		8.32
v 97.483 		-66.765 		8.395
v 99.185 		-67.194 		8.379
v 97.71 		-66.707 		8.395
v 97.92 		-66.628 		8.395
v -91.474 		47.505 		8.11
v 98.106 		-66.53 		8.395
v 98.266 		-66.415 		8.395
v -87.318 		-66.713 		8.354
v -87.484 		-66.287 		8.354
v -87.045 		-70.732 		0.229
v -87.484 		-66.287 		8.354
v -87.484 		-66.287 		8.354
v 102 		47.925 		8.277
v 97 		50.924 		0.354
v -90.991 		48.42 		8.046
v 97 		50.699 		0.29
v -91.8 		47.608 		8.046
v -87.045 		-67.118 		8.354
v 101.156 		48.368 		8.277
v -88.878 		49.825 		0.42
v -90.071 		49.199 		0.42
v 99.5 		-66.967 		8.379
v 97 		50.33 		0.229
v -88.805 		49.764 		0.354
v 98.266 		49.764 		0.173
v -86.673 		-67.491 		8.354
v -86.09 		-71.699 		0.42
v 99.753 		-66.713 		8.379
v -91.09 		48.465 		7.98
v 97 		49.825 		0.173
v -90.071 		-70.199 		0.42
v -88.878 		-70.825 		0.42
v -91.91 		47.642 		7.98
v 101.755 		48.875 		8.227
v -89.984 		-70.145 		0.354
v -88.805 		-70.764 		0.354
v 97 		49.199 		0.123
v -88.59 		49.582 		0.29
v -91.474 		46.543 		8.171
v -91.8 		45.707 		8.171
v -89.725 		-69.986 		0.29
v -88.59 		-70.582 		0.29
v 100.455 		-68.775 		8.32
v -88.878 		-65.85 		8.32
v -88.805 		-66.415 		8.32
v 99.668 		47.109 		8.354
v 99.061 		47.338 		8.354
v -92.045 		46.657 		8.11
v 101.156 		-68.406 		8.32
v -88.59 		-66.967 		8.32
v -92.393 		45.765 		8.11
v -88.237 		-67.491 		8.32
v 98.403 		47.505 		8.354
v 101.755 		-67.975 		8.32
v -89.3 		-69.725 		0.229
v 97.71 		47.608 		8.354
v -92.393 		46.727 		8.046
v -89.984 		-66.53 		8.277
v 97 		47.642 		8.354
v 101.156 		-69.368 		8.277
v -92.755 		45.8 		8.046
v -90.071 		-65.85 		8.277
v -89.725 		-67.194 		8.277
v 102 		-68.925 		8.277
v 99.668 		48.071 		8.32
v 97.92 		48.42 		8.32
v -88.237 		49.283 		0.229
v 98.816 		48.288 		8.32
v 97 		48.465 		8.32
v 98.106 		49.145 		8.277
v -88.237 		-70.283 		0.229
v -92.511 		46.75 		7.98
v 100.21 		48.725 		8.277
v -83 		47.642 		8.354
v 99.185 		48.986 		8.277
v -92.877 		45.812 		7.98
v -83.71 		47.608 		8.354
v 98.403 		-68.505 		8.354
v 97 		-67.75 		8.379
v 97.483 		-67.727 		8.379
v 99.061 		-68.338 		8.354
v 97.955 		-67.657 		8.379
v 99.668 		-68.109 		8.354
v 97.955 		46.657 		8.379
v -83 		48.465 		8.32
v 97.483 		46.727 		8.379
v 101.484 		45.287 		8.354
v 100.21 		-67.824 		8.354
v -83.92 		48.42 		8.32
v 97 		46.75 		8.379
v 101.318 		45.713 		8.354
v 98.816 		-69.288 		8.32
v -91.91 		44.85 		8.171
v 101.484 		45.287 		8.354
v 101.484 		45.287 		8.354
v 101.484 		45.287 		8.354
v -92.511 		44.85 		8.11
v 99.668 		-69.071 		8.32
v -92.877 		44.85 		8.046
v -86.21 		-67.824 		8.354
v 101.045 		46.118 		8.354
v -87.755 		-67.975 		8.32
v -84.403 		47.505 		8.354
v -87.156 		-68.406 		8.32
v 100.673 		46.491 		8.354
v 98.266 		45.415 		8.395
v -85.061 		47.338 		8.354
v -86.455 		-68.775 		8.32
v 98.106 		45.53 		8.395
v 97.92 		45.628 		8.395
v 97.71 		45.707 		8.395
v -85.668 		47.109 		8.354
v -88 		-68.925 		8.277
v 97.483 		45.765 		8.395
v 97.245 		45.8 		8.395
v 97 		45.812 		8.395
v -87.156 		-69.368 		8.277
v 99.185 		-69.986 		8.277
v 102.237 		46.491 		8.32
v -84.816 		48.288 		8.32
v -91.09 		48.465 		0.42
v 100.21 		-69.725 		8.277
v -91.91 		47.642 		0.42
v 101.755 		46.975 		8.32
v 99.5 		-70.582 		8.227
v -90.991 		48.42 		0.354
v -85.668 		48.071 		8.32
v 100.673 		-70.283 		8.227
v -91.8 		47.608 		0.354
v 101.755 		-69.875 		8.227
v 97 		-68.642 		8.354
v 97.71 		-68.608 		8.354
v 99.185 		46.194 		8.379
v 98.816 		46.388 		8.379
v -84.106 		49.145 		8.277
v -90.694 		48.288 		0.29
v -85.185 		48.986 		8.277
v 98.403 		46.543 		8.379
v -90.991 		-66.628 		8.227
v 105.474 		-67.543 		8.171
v -91.474 		47.505 		0.29
v -91.09 		-65.85 		8.227
v 105.8 		-66.707 		8.171
v -90.694 		-67.388 		8.227
v 105.91 		-65.85 		8.171
v -90.208 		-68.109 		8.227
v 106.393 		-66.765 		8.11
v 100.21 		46.824 		8.354
v 97 		-69.465 		8.32
v 97.92 		-69.42 		8.32
v 98.106 		49.145 		0.123
v 104.939 		-68.338 		8.171
v 97.92 		48.42 		0.08
v -83 		45.812 		8.395
v -90.208 		48.071 		0.229
v -83.245 		45.8 		8.395
v 97 		48.465 		0.08
v -91.91 		-65.85 		8.171
v -91.8 		-66.707 		8.171
v -83.483 		45.765 		8.395
v -90.939 		47.338 		0.229
v -83.71 		45.707 		8.395
v 97.71 		47.608 		0.046
v -83.92 		45.628 		8.395
v 105.474 		-68.505 		8.11
v -89.3 		-67.824 		8.277
v 97 		-70.199 		8.277
v 98.106 		-70.145 		8.277
v -91.474 		-67.543 		8.171
v 97 		47.642 		0.046
v 106.045 		-67.657 		8.11
v 97 		-70.825 		8.227
v 98.266 		-70.764 		8.227
v 98.488 		45.147 		8.395
v -92.511 		-65.85 		8.11
v 105.8 		-68.608 		8.046
v -83 		46.75 		8.379
v -92.393 		-66.765 		8.11
v 98.394 		45.287 		8.395
v 106.393 		-67.727 		8.046
v 100.052 		45.147 		8.379
v -88.721 		-68.406 		8.277
v -83.483 		46.727 		8.379
v 99.939 		45.437 		8.379
v -83.955 		46.657 		8.379
v -89.545 		-68.775 		8.227
v 99.753 		45.713 		8.379
v 97.955 		46.657 		0.021
v -88.721 		-69.368 		8.227
v 99.5 		45.967 		8.379
v 104.694 		-69.288 		8.11
v -92.755 		-66.8 		8.046
v 97.483 		46.727 		0.021
v -92.877 		-65.85 		8.046
v 97 		-71.33 		8.171
v -90.208 		47.109 		0.173
v 97 		46.75 		0.021
v -86.21 		-69.725 		8.277
v 104.991 		-69.42 		8.046
v -87.755 		-69.875 		8.227
v -92.877 		-66.812 		7.98
v 97 		-71.699 		8.11
v 105.09 		-69.465 		7.98
v 97 		-71.924 		8.046
v -86.673 		-70.283 		8.227
v 105.91 		-68.642 		7.98
v -92.045 		46.657 		0.29
v -90.939 		-68.338 		8.171
v -91.474 		46.543 		0.229
v -92.045 		-67.657 		8.11
v -91.8 		45.707 		0.229
v 97 		-66.812 		0.005
v -91.474 		-68.505 		8.11
v 98.266 		45.415 		0.005
v 97.245 		-66.8 		0.005
v 104.208 		-69.071 		8.171
v -84.403 		46.543 		8.379
v -83 		-71.33 		8.171
v 97.483 		-66.765 		0.005
v -84.816 		46.388 		8.379
v 98.106 		45.53 		0.005
v -83 		-71.699 		8.11
v -91.8 		-68.608 		8.046
v -85.185 		46.194 		8.379
v 97.71 		-66.707 		0.005
v 97.92 		45.628 		0.005
v -83 		-71.924 		8.046
v -90.694 		46.388 		0.173
v 97.71 		45.707 		0.005
v -90.991 		45.628 		0.173
v 97.92 		-66.628 		0.005
v 103.3 		-69.725 		8.171
v 97.483 		45.765 		0.005
v -85.753 		-71.061 		8.171
v -90.208 		-69.071 		8.171
v 102.59 		-70.582 		8.11
v -84.394 		-71.262 		8.171
v 98.106 		-66.53 		0.005
v 97.245 		45.8 		0.005
v -90.694 		-69.288 		8.11
v -85.939 		-71.413 		8.11
v 103.725 		-69.986 		8.11
v 98.266 		-66.415 		0.005
v -90.991 		-69.42 		8.046
v -84.106 		45.53 		8.395
v -84.488 		-71.627 		8.11
v -84.266 		45.415 		8.395
v -84.394 		45.287 		8.395
v 98.564 		44.85 		8.395
v -84.488 		45.147 		8.395
v 102.805 		-70.764 		8.046
v -92.511 		46.75 		0.42
v -92.877 		45.812 		0.42
v 98.545 		45.001 		8.395
v 103.984 		-70.145 		8.046
v 100.09 		44.85 		8.379
v -92.393 		46.727 		0.354
v -91.91 		-68.642 		7.98
v -92.755 		45.8 		0.354
v -84.545 		-71.85 		8.046
v 102.878 		-70.825 		7.98
v -91.09 		-69.465 		7.98
v 97 		-69.465 		0.08
v -85.5 		45.967 		8.379
v 104.071 		-70.199 		7.98
v 97.92 		-69.42 		0.08
v -92.393 		45.765 		0.29
v 101.54 		44.85 		8.354
v -85.753 		45.713 		8.379
v -84.564 		-71.924 		7.98
v 97 		-68.642 		0.046
v 97.71 		-68.608 		0.046
v -85.939 		45.437 		8.379
v -92.393 		-67.727 		8.046
v 102.878 		44.85 		8.32
v -92.877 		44.85 		0.354
v 101.045 		-70.732 		8.171
v -92.511 		-67.75 		7.98
v 102.237 		-70.283 		8.171
v -92.511 		44.85 		0.29
v -91.91 		44.85 		0.229
v 97 		-67.75 		0.021
v 101.318 		-71.061 		8.11
v 97.483 		-67.727 		0.021
v 104.071 		44.85 		8.277
v 97.955 		-67.657 		0.021
v 97 		45.812 		0.005
v 105.09 		44.85 		8.227
v 101.484 		-71.262 		8.046
v -87.045 		-70.732 		8.171
v -86.455 		47.774 		8.32
v 104.939 		47.338 		8.171
v -87.156 		47.406 		8.32
v 105.474 		47.505 		8.11
v -87.318 		-71.061 		8.11
v 104.694 		48.288 		8.11
v 101.54 		-71.33 		7.98
v 97 		-71.924 		0.354
v -86.21 		48.725 		8.277
v 105.8 		47.608 		8.046
v -87.156 		48.368 		8.277
v 97 		-71.699 		0.29
v 104.991 		48.42 		8.046
v -87.484 		-71.262 		8.046
v -88 		47.925 		8.277
v -91.8 		-66.707 		0.229
v -91.91 		-65.85 		0.229
v -91.09 		44.85 		0.173
v -91.474 		-67.543 		0.229
v -86.052 		-71.627 		8.046
v 98.394 		-71.262 		8.171
v 105.91 		47.642 		7.98
v 97 		-71.33 		0.229
v -90.991 		-66.628 		0.173
v -87.54 		-71.33 		7.98
v -91.09 		-65.85 		0.173
v 99.753 		-71.061 		8.171
v -90.694 		-67.388 		0.173
v 105.09 		48.465 		7.98
v -86.09 		-71.699 		7.98
v -87.755 		48.875 		8.227
v 97 		-70.825 		0.173
v 98.266 		-70.764 		0.173
v 98.488 		-71.627 		8.11
v 99.939 		-71.413 		8.11
v 97 		-70.199 		0.123
v 98.106 		-70.145 		0.123
v -89.3 		-69.725 		8.171
v 98.545 		-71.85 		8.046
v -88.721 		47.406 		8.277
v -88.237 		-70.283 		8.171
v -88.721 		48.368 		8.227
v 100.052 		-71.627 		8.046
v -89.545 		47.774 		8.227
v -88.59 		-70.582 		8.11
v -92.877 		-66.812 		0.42
v -92.877 		-65.85 		0.354
v -92.755 		-66.8 		0.354
v 98.564 		-71.924 		7.98
v 100.09 		-71.699 		7.98
v -86.052 		45.147 		8.379
v -92.511 		-65.85 		0.29
v -92.393 		-66.765 		0.29
v -86.21 		46.824 		8.354
v -86.673 		46.491 		8.354
v -87.755 		46.975 		8.32
v -91.8 		-68.608 		0.354
v -92.045 		-67.657 		0.29
v -91.474 		-68.505 		0.29
v -90.939 		-68.338 		0.229
v -90.208 		-68.109 		0.173
v -91.91 		-68.642 		0.42
v -91.09 		-69.465 		0.42
v -90.991 		-69.42 		0.354
v -90.694 		-69.288 		0.29
v -90.208 		-69.071 		0.229
v -92.511 		-67.75 		0.42
v -92.393 		-67.727 		0.354
# 897 vertices

g group_0_15277357

usemtl color_15277357
s 0

f 7 	25 	10
f 2 	12 	4
f 12 	175 	4
f 3 	20 	1
f 16 	1 	20
f 13 	18 	6
f 15 	176 	12
f 6 	18 	8
f 17 	22 	5
f 15 	182 	176
f 17 	35 	22
f 12 	176 	175
f 11 	19 	24
f 29 	19 	14
f 19 	29 	34
f 5 	22 	7
f 19 	34 	24
f 22 	25 	7
f 29 	14 	26
f 30 	35 	17
f 29 	49 	34
f 29 	46 	49
f 22 	36 	25
f 35 	36 	22
f 36 	66 	25
f 37 	39 	28
f 26 	43 	46
f 26 	46 	29
f 37 	47 	39
f 28 	39 	32
f 39 	833 	32
f 499 	510 	30
f 30 	510 	35
f 42 	44 	21
f 23 	21 	44
f 23 	44 	171
f 35 	514 	36
f 510 	514 	35
f 41 	31 	27
f 41 	33 	31
f 43 	58 	46
f 41 	38 	33
f 41 	40 	38
f 695 	699 	48
f 789 	54 	48
f 54 	55 	48
f 52 	43 	135
f 53 	308 	56
f 58 	43 	52
f 46 	59 	49
f 46 	58 	59
f 54 	60 	55
f 57 	61 	50
f 404 	37 	62
f 408 	37 	404
f 10 	65 	63
f 62 	37 	28
f 25 	65 	10
f 858 	68 	71
f 66 	65 	25
f 519 	66 	36
f 56 	41 	53
f 21 	766 	42
f 57 	53 	41
f 68 	74 	71
f 61 	57 	41
f 41 	64 	61
f 68 	73 	74
f 67 	64 	41
f 41 	69 	51
f 70 	77 	72
f 41 	27 	67
f 70 	76 	77
f 72 	77 	11
f 77 	19 	11
f 78 	538 	75
f 82 	74 	73
f 73 	80 	82
f 78 	554 	538
f 85 	554 	78
f 75 	538 	528
f 99 	74 	82
f 45 	51 	69
f 81 	84 	298
f 76 	83 	14
f 26 	14 	83
f 77 	76 	14
f 85 	568 	554
f 19 	77 	14
f 86 	130 	131
f 84 	27 	87
f 50 	61 	79
f 61 	64 	79
f 100 	101 	91
f 79 	64 	81
f 270 	858 	71
f 64 	67 	81
f 89 	97 	90
f 71 	74 	98
f 84 	81 	67
f 95 	97 	89
f 92 	91 	101
f 70 	93 	96
f 97 	122 	90
f 98 	270 	71
f 67 	27 	84
f 98 	74 	99
f 87 	31 	88
f 70 	94 	93
f 31 	87 	27
f 94 	70 	72
f 76 	70 	96
f 95 	136 	97
f 31 	33 	88
f 134 	136 	95
f 757 	741 	734
f 96 	104 	76
f 106 	99 	82
f 103 	115 	102
f 83 	76 	104
f 45 	488 	229
f 110 	112 	105
f 111 	102 	115
f 107 	114 	109
f 105 	112 	108
f 841 	171 	174
f 114 	107 	90
f 114 	117 	109
f 212 	106 	113
f 113 	218 	212
f 83 	104 	119
f 102 	111 	227
f 115 	103 	332
f 123 	119 	162
f 122 	114 	90
f 114 	124 	117
f 162 	120 	123
f 86 	125 	80
f 110 	154 	121
f 119 	123 	127
f 122 	124 	114
f 576 	354 	350
f 110 	121 	128
f 80 	125 	82
f 121 	40 	128
f 124 	129 	117
f 125 	106 	82
f 488 	484 	229
f 123 	135 	127
f 110 	128 	112
f 119 	127 	83
f 127 	26 	83
f 125 	86 	131
f 122 	164 	124
f 124 	166 	129
f 120 	269 	132
f 118 	33 	38
f 125 	113 	106
f 134 	736 	140
f 125 	131 	113
f 121 	118 	38
f 132 	123 	120
f 130 	133 	131
f 40 	121 	38
f 135 	123 	132
f 131 	133 	214
f 122 	97 	138
f 127 	43 	26
f 97 	136 	138
f 127 	135 	43
f 138 	164 	122
f 214 	113 	131
f 140 	141 	134
f 168 	135 	132
f 283 	133 	188
f 134 	141 	136
f 135 	168 	52
f 629 	716 	655
f 136 	142 	138
f 48 	126 	116
f 141 	142 	136
f 142 	146 	138
f 126 	48 	157
f 420 	73 	68
f 420 	145 	73
f 138 	146 	164
f 147 	150 	143
f 526 	220 	195
f 1 	16 	638
f 225 	220 	526
f 143 	150 	144
f 149 	154 	137
f 144 	96 	93
f 144 	150 	96
f 137 	154 	139
f 139 	110 	105
f 145 	153 	80
f 154 	110 	139
f 80 	153 	86
f 155 	156 	147
f 126 	506 	116
f 69 	151 	146
f 145 	80 	73
f 155 	162 	156
f 147 	156 	150
f 150 	156 	104
f 152 	161 	153
f 156 	119 	104
f 152 	159 	161
f 150 	104 	96
f 161 	86 	153
f 195 	192 	517
f 155 	389 	162
f 156 	162 	119
f 87 	88 	148
f 120 	162 	389
f 165 	159 	163
f 148 	88 	149
f 124 	164 	166
f 118 	154 	149
f 165 	161 	159
f 469 	465 	49
f 118 	149 	88
f 118 	121 	154
f 89 	696 	709
f 129 	166 	167
f 33 	118 	88
f 158 	215 	160
f 130 	86 	161
f 52 	168 	172
f 215 	217 	160
f 168 	170 	172
f 173 	58 	52
f 163 	465 	183
f 52 	172 	173
f 163 	185 	165
f 58 	173 	177
f 166 	240 	167
f 58 	177 	59
f 165 	130 	161
f 562 	340 	334
f 562 	350 	340
f 180 	182 	15
f 270 	182 	180
f 693 	655 	716
f 629 	613 	716
f 180 	858 	270
f 243 	247 	181
f 185 	163 	183
f 300 	209 	182
f 165 	185 	188
f 89 	354 	696
f 95 	89 	709
f 157 	48 	315
f 709 	134 	95
f 186 	181 	247
f 172 	202 	173
f 165 	188 	130
f 247 	248 	186
f 188 	133 	130
f 187 	199 	191
f 173 	211 	177
f 573 	191 	158
f 465 	24 	34
f 34 	49 	465
f 170 	250 	196
f 4 	175 	187
f 198 	185 	183
f 175 	199 	187
f 183 	193 	198
f 172 	170 	196
f 188 	185 	276
f 195 	197 	192
f 201 	199 	175
f 202 	172 	196
f 204 	196 	205
f 188 	276 	283
f 197 	234 	200
f 201 	175 	176
f 205 	196 	250
f 204 	206 	196
f 201 	231 	199
f 224 	202 	206
f 189 	207 	194
f 203 	207 	189
f 204 	205 	206
f 194 	178 	174
f 200 	257 	208
f 207 	178 	194
f 211 	173 	202
f 209 	201 	176
f 186 	248 	190
f 196 	206 	202
f 176 	182 	209
f 209 	237 	201
f 300 	237 	209
f 210 	213 	203
f 233 	234 	197
f 146 	151 	164
f 158 	191 	215
f 210 	228 	213
f 203 	213 	207
f 213 	179 	207
f 214 	218 	113
f 191 	219 	215
f 199 	219 	191
f 207 	179 	178
f 219 	222 	215
f 846 	881 	820
f 847 	846 	820
f 221 	205 	250
f 516 	139 	223
f 215 	222 	217
f 225 	242 	220
f 133 	283 	226
f 206 	205 	221
f 224 	206 	221
f 223 	228 	210
f 225 	249 	242
f 202 	224 	229
f 133 	226 	214
f 227 	249 	225
f 214 	230 	218
f 69 	41 	463
f 139 	105 	223
f 214 	226 	230
f 202 	229 	211
f 223 	105 	228
f 253 	227 	111
f 231 	219 	199
f 213 	184 	179
f 222 	219 	232
f 115 	253 	111
f 231 	232 	219
f 220 	233 	195
f 254 	230 	226
f 51 	224 	221
f 228 	184 	213
f 232 	536 	222
f 220 	242 	233
f 195 	233 	197
f 824 	390 	402
f 233 	244 	234
f 151 	166 	164
f 201 	237 	231
f 237 	239 	231
f 257 	200 	234
f 166 	151 	240
f 151 	69 	240
f 231 	239 	232
f 478 	308 	282
f 167 	243 	181
f 218 	235 	212
f 167 	240 	243
f 484 	211 	229
f 242 	244 	233
f 234 	244 	262
f 235 	252 	246
f 251 	252 	235
f 100 	91 	406
f 169 	245 	250
f 3 	815 	20
f 251 	235 	218
f 230 	251 	218
f 847 	855 	846
f 250 	170 	169
f 458 	190 	248
f 734 	500 	757
f 69 	243 	240
f 253 	249 	227
f 254 	256 	230
f 484 	177 	211
f 777 	241 	238
f 245 	241 	782
f 450 	275 	253
f 251 	230 	256
f 216 	250 	245
f 256 	260 	251
f 782 	216 	245
f 293 	208 	257
f 821 	128 	40
f 216 	221 	250
f 51 	751 	41
f 117 	258 	109
f 260 	252 	251
f 234 	262 	257
f 258 	274 	261
f 257 	299 	293
f 228 	108 	184
f 257 	262 	299
f 242 	249 	264
f 105 	108 	228
f 261 	265 	255
f 264 	244 	242
f 44 	42 	266
f 401 	263 	269
f 244 	267 	262
f 255 	265 	336
f 264 	267 	244
f 268 	171 	266
f 182 	270 	271
f 401 	269 	120
f 266 	171 	44
f 270 	272 	271
f 117 	274 	258
f 268 	174 	171
f 270 	98 	272
f 865 	179 	184
f 194 	174 	268
f 275 	264 	249
f 184 	108 	865
f 802 	865 	108
f 249 	253 	275
f 263 	273 	278
f 274 	279 	261
f 802 	108 	112
f 128 	821 	112
f 280 	267 	264
f 198 	276 	185
f 343 	282 	277
f 272 	98 	281
f 263 	278 	269
f 275 	280 	264
f 281 	98 	99
f 132 	269 	285
f 269 	278 	285
f 311 	281 	99
f 320 	322 	157
f 132 	285 	168
f 307 	325 	273
f 450 	280 	275
f 290 	291 	157
f 286 	100 	287
f 291 	292 	157
f 281 	311 	312
f 292 	294 	157
f 287 	406 	259
f 294 	295 	157
f 278 	169 	285
f 193 	289 	296
f 271 	300 	182
f 372 	296 	289
f 285 	170 	168
f 288 	284 	79
f 289 	368 	372
f 285 	169 	170
f 193 	296 	198
f 261 	279 	265
f 272 	303 	271
f 198 	296 	304
f 299 	78 	293
f 303 	300 	271
f 299 	85 	78
f 303 	338 	300
f 282 	305 	277
f 281 	306 	272
f 293 	78 	75
f 282 	308 	305
f 267 	309 	262
f 198 	304 	276
f 306 	303 	272
f 277 	50 	284
f 276 	304 	310
f 129 	274 	117
f 262 	309 	299
f 305 	50 	277
f 106 	311 	99
f 309 	85 	299
f 430 	307 	273
f 280 	313 	267
f 276 	310 	283
f 79 	284 	50
f 157 	315 	316
f 281 	312 	306
f 283 	310 	337
f 288 	81 	298
f 309 	267 	313
f 316 	318 	157
f 805 	314 	302
f 79 	81 	288
f 309 	319 	85
f 318 	320 	157
f 321 	307 	302
f 313 	319 	309
f 312 	352 	306
f 157 	322 	323
f 321 	302 	314
f 337 	226 	283
f 307 	321 	325
f 53 	305 	308
f 315 	512 	513
f 311 	106 	212
f 289 	479 	368
f 326 	312 	311
f 315 	513 	316
f 53 	57 	305
f 311 	212 	326
f 316 	327 	318
f 305 	57 	50
f 273 	328 	278
f 360 	312 	326
f 273 	325 	328
f 513 	327 	316
f 328 	169 	278
f 327 	369 	318
f 212 	235 	326
f 296 	380 	304
f 324 	577 	331
f 253 	115 	371
f 235 	246 	326
f 314 	236 	321
f 318 	369 	320
f 331 	694 	324
f 115 	377 	371
f 321 	238 	325
f 238 	321 	236
f 332 	377 	115
f 328 	325 	241
f 335 	237 	300
f 238 	241 	325
f 334 	393 	332
f 328 	241 	245
f 300 	338 	335
f 359 	442 	333
f 328 	245 	169
f 301 	100 	286
f 358 	359 	333
f 23 	878 	21
f 606 	255 	336
f 337 	254 	226
f 483 	879 	878
f 351 	100 	301
f 336 	339 	331
f 310 	304 	385
f 341 	338 	303
f 100 	406 	287
f 344 	329 	343
f 337 	310 	342
f 343 	277 	344
f 331 	339 	694
f 306 	341 	303
f 351 	301 	297
f 342 	310 	385
f 337 	342 	347
f 322 	381 	323
f 349 	297 	94
f 765 	347 	342
f 336 	348 	339
f 349 	351 	297
f 345 	147 	143
f 351 	101 	100
f 94 	72 	349
f 265 	348 	336
f 349 	353 	351
f 337 	347 	254
f 346 	147 	345
f 348 	424 	339
f 329 	344 	330
f 72 	353 	349
f 352 	341 	306
f 347 	356 	254
f 351 	357 	101
f 330 	358 	333
f 351 	353 	357
f 344 	358 	330
f 352 	396 	341
f 72 	11 	353
f 346 	155 	147
f 353 	361 	357
f 354 	107 	350
f 254 	356 	256
f 352 	312 	360
f 346 	355 	155
f 353 	11 	361
f 11 	24 	361
f 348 	441 	424
f 354 	90 	107
f 385 	760 	342
f 576 	696 	354
f 277 	284 	344
f 765 	342 	760
f 265 	364 	348
f 279 	364 	265
f 344 	284 	358
f 547 	327 	513
f 284 	288 	358
f 89 	90 	354
f 363 	384 	365
f 129 	366 	274
f 129 	167 	366
f 358 	288 	359
f 274 	366 	279
f 323 	290 	157
f 288 	298 	359
f 246 	360 	326
f 364 	279 	370
f 246 	690 	360
f 366 	370 	279
f 478 	282 	343
f 320 	374 	322
f 237 	335 	239
f 373 	239 	335
f 320 	369 	374
f 370 	375 	364
f 373 	335 	378
f 380 	296 	372
f 338 	378 	335
f 374 	381 	322
f 323 	381 	388
f 362 	389 	355
f 384 	363 	379
f 365 	384 	390
f 341 	391 	338
f 378 	338 	391
f 389 	155 	355
f 384 	402 	390
f 290 	323 	388
f 365 	390 	367
f 388 	394 	290
f 391 	555 	378
f 393 	377 	332
f 390 	824 	367
f 387 	407 	392
f 341 	396 	391
f 393 	427 	377
f 290 	394 	291
f 376 	398 	383
f 340 	399 	334
f 362 	395 	401
f 167 	181 	366
f 392 	398 	376
f 384 	379 	400
f 398 	137 	383
f 334 	399 	393
f 366 	181 	370
f 379 	397 	400
f 399 	433 	393
f 402 	384 	400
f 186 	370 	181
f 362 	401 	389
f 369 	565 	374
f 370 	186 	375
f 393 	433 	427
f 120 	389 	401
f 186 	190 	375
f 385 	304 	380
f 375 	190 	382
f 405 	382 	190
f 430 	263 	395
f 388 	460 	394
f 298 	407 	387
f 406 	408 	404
f 397 	682 	400
f 47 	37 	408
f 394 	460 	464
f 386 	382 	405
f 400 	684 	402
f 395 	263 	401
f 406 	410 	408
f 368 	409 	372
f 91 	410 	406
f 407 	148 	392
f 400 	682 	684
f 291 	394 	412
f 399 	340 	403
f 47 	408 	413
f 350 	403 	340
f 410 	413 	408
f 405 	190 	458
f 412 	292 	291
f 413 	851 	47
f 84 	87 	407
f 91 	418 	410
f 403 	440 	399
f 87 	148 	407
f 415 	294 	292
f 418 	420 	413
f 418 	413 	410
f 148 	398 	392
f 398 	149 	137
f 292 	412 	415
f 107 	403 	350
f 91 	92 	418
f 415 	419 	294
f 148 	149 	398
f 107 	109 	403
f 407 	298 	84
f 466 	416 	395
f 419 	295 	294
f 92 	421 	423
f 372 	411 	380
f 394 	464 	412
f 425 	415 	412
f 372 	409 	411
f 412 	464 	425
f 92 	423 	418
f 415 	428 	419
f 418 	423 	145
f 416 	430 	395
f 415 	425 	428
f 416 	426 	430
f 153 	145 	423
f 420 	418 	145
f 414 	435 	417
f 866 	302 	426
f 425 	437 	428
f 425 	434 	437
f 431 	435 	414
f 426 	302 	307
f 444 	446 	429
f 417 	435 	397
f 429 	446 	436
f 432 	376 	438
f 426 	307 	430
f 399 	440 	433
f 445 	376 	432
f 273 	263 	430
f 417 	397 	379
f 441 	348 	364
f 441 	444 	424
f 422 	755 	431
f 442 	445 	890
f 403 	109 	440
f 424 	444 	429
f 431 	691 	435
f 109 	258 	440
f 443 	355 	346
f 444 	386 	446
f 345 	483 	346
f 280 	450 	451
f 376 	383 	438
f 451 	313 	280
f 319 	313 	560
f 446 	477 	436
f 441 	364 	375
f 437 	434 	492
f 253 	371 	450
f 441 	382 	444
f 382 	441 	375
f 377 	453 	371
f 377 	427 	453
f 374 	639 	381
f 449 	355 	443
f 444 	382 	386
f 567 	452 	454
f 381 	455 	388
f 466 	449 	447
f 371 	453 	450
f 362 	355 	449
f 466 	362 	449
f 639 	455 	381
f 421 	439 	152
f 423 	421 	152
f 520 	456 	459
f 152 	439 	159
f 423 	152 	153
f 463 	405 	458
f 460 	388 	455
f 461 	163 	159
f 462 	466 	447
f 439 	461 	159
f 461 	465 	163
f 467 	452 	448
f 69 	141 	140
f 69 	142 	141
f 69 	146 	142
f 452 	467 	363
f 465 	469 	183
f 647 	471 	455
f 69 	247 	243
f 470 	472 	505
f 469 	193 	183
f 69 	248 	247
f 454 	452 	363
f 460 	455 	471
f 473 	464 	460
f 69 	458 	248
f 69 	463 	458
f 454 	363 	365
f 471 	473 	460
f 469 	474 	193
f 453 	457 	450
f 454 	365 	456
f 464 	473 	434
f 456 	367 	459
f 462 	416 	466
f 456 	365 	367
f 477 	475 	436
f 450 	457 	451
f 462 	862 	416
f 464 	434 	425
f 446 	386 	478
f 474 	289 	193
f 362 	466 	395
f 472 	476 	468
f 478 	477 	446
f 426 	416 	862
f 59 	177 	474
f 862 	866 	426
f 486 	473 	471
f 386 	405 	480
f 481 	453 	427
f 482 	483 	878
f 289 	474 	479
f 480 	478 	386
f 453 	481 	457
f 177 	484 	479
f 2 	472 	470
f 479 	484 	368
f 2 	4 	472
f 442 	359 	387
f 427 	487 	481
f 472 	4 	476
f 485 	443 	482
f 484 	489 	368
f 434 	473 	490
f 445 	442 	387
f 484 	488 	489
f 427 	433 	487
f 489 	409 	368
f 4 	187 	476
f 487 	606 	481
f 387 	392 	445
f 483 	482 	443
f 473 	486 	490
f 445 	392 	376
f 434 	490 	492
f 387 	359 	298
f 571 	18 	13
f 493 	634 	491
f 440 	494 	433
f 18 	571 	524
f 405 	463 	480
f 497 	490 	486
f 433 	494 	487
f 255 	487 	494
f 467 	379 	363
f 443 	346 	483
f 491 	496 	498
f 486 	495 	497
f 467 	417 	379
f 490 	497 	500
f 447 	485 	837
f 485 	449 	443
f 447 	449 	485
f 490 	500 	492
f 491 	498 	493
f 498 	505 	493
f 504 	507 	126
f 776 	497 	495
f 757 	500 	497
f 658 	505 	468
f 511 	496 	824
f 501 	515 	502
f 511 	824 	827
f 508 	516 	509
f 511 	518 	496
f 36 	514 	519
f 567 	515 	501
f 502 	515 	520
f 508 	383 	516
f 516 	223 	509
f 498 	496 	518
f 521 	614 	160
f 502 	520 	503
f 470 	505 	498
f 137 	139 	516
f 503 	523 	506
f 509 	223 	210
f 503 	520 	523
f 521 	526 	522
f 516 	383 	137
f 518 	470 	498
f 567 	454 	515
f 505 	472 	468
f 499 	578 	510
f 521 	160 	217
f 515 	456 	520
f 578 	579 	510
f 454 	456 	515
f 510 	579 	514
f 217 	526 	521
f 459 	523 	520
f 28 	511 	827
f 514 	632 	519
f 511 	32 	518
f 579 	632 	514
f 28 	32 	511
f 566 	524 	529
f 217 	222 	530
f 518 	831 	470
f 525 	529 	524
f 222 	536 	530
f 32 	831 	518
f 530 	526 	217
f 535 	537 	512
f 507 	540 	126
f 102 	536 	232
f 189 	529 	525
f 550 	537 	535
f 540 	542 	126
f 232 	239 	102
f 542 	543 	126
f 538 	544 	528
f 534 	189 	525
f 543 	545 	126
f 189 	194 	529
f 512 	537 	513
f 545 	546 	126
f 529 	194 	268
f 537 	547 	513
f 548 	537 	550
f 528 	544 	532
f 126 	546 	501
f 102 	239 	103
f 373 	103 	239
f 548 	551 	537
f 502 	126 	501
f 373 	378 	553
f 494 	440 	258
f 537 	551 	547
f 503 	126 	502
f 533 	663 	552
f 373 	553 	103
f 506 	126 	503
f 548 	550 	551
f 549 	203 	534
f 258 	261 	494
f 553 	378 	555
f 494 	261 	255
f 556 	544 	538
f 327 	547 	557
f 533 	552 	558
f 451 	559 	313
f 543 	531 	541
f 559 	560 	313
f 534 	203 	189
f 562 	555 	391
f 554 	556 	538
f 627 	541 	531
f 509 	549 	610
f 391 	396 	562
f 558 	539 	533
f 451 	563 	559
f 549 	210 	203
f 557 	369 	327
f 564 	352 	360
f 509 	210 	549
f 557 	565 	369
f 457 	563 	451
f 360 	690 	564
f 563 	317 	559
f 809 	566 	266
f 564 	396 	352
f 546 	561 	567
f 566 	268 	266
f 568 	85 	319
f 564 	569 	396
f 529 	268 	566
f 559 	317 	560
f 476 	552 	468
f 570 	571 	13
f 554 	572 	556
f 396 	569 	562
f 552 	476 	573
f 568 	572 	554
f 584 	550 	535
f 573 	558 	552
f 531 	527 	622
f 573 	158 	558
f 570 	575 	571
f 564 	576 	569
f 584 	589 	550
f 531 	622 	627
f 577 	563 	457
f 574 	575 	570
f 547 	591 	557
f 575 	525 	571
f 532 	578 	499
f 481 	577 	457
f 561 	541 	448
f 534 	525 	575
f 561 	452 	567
f 571 	525 	524
f 452 	561 	448
f 587 	578 	532
f 476 	187 	573
f 65 	583 	535
f 187 	191 	573
f 535 	583 	584
f 574 	581 	575
f 334 	332 	555
f 580 	581 	574
f 334 	555 	562
f 581 	534 	575
f 544 	587 	532
f 350 	562 	569
f 551 	589 	547
f 578 	590 	579
f 569 	576 	350
f 551 	550 	589
f 587 	590 	578
f 582 	603 	588
f 589 	591 	547
f 586 	607 	592
f 590 	636 	579
f 641 	557 	591
f 556 	596 	544
f 467 	448 	593
f 587 	544 	596
f 583 	597 	584
f 324 	563 	577
f 587 	600 	590
f 583 	601 	597
f 637 	599 	582
f 597 	602 	584
f 585 	604 	586
f 563 	324 	317
f 585 	539 	604
f 582 	599 	603
f 527 	542 	540
f 595 	608 	598
f 606 	577 	481
f 588 	603 	414
f 605 	608 	595
f 596 	600 	587
f 527 	540 	621
f 604 	607 	586
f 584 	602 	589
f 577 	606 	331
f 542 	531 	543
f 607 	605 	592
f 542 	527 	531
f 487 	255 	606
f 894 	594 	580
f 588 	414 	593
f 545 	543 	541
f 606 	336 	331
f 594 	610 	580
f 593 	414 	417
f 605 	607 	609
f 593 	417 	467
f 592 	605 	595
f 517 	605 	609
f 545 	541 	561
f 594 	508 	610
f 558 	612 	539
f 319 	660 	568
f 560 	660 	319
f 545 	561 	546
f 558 	158 	612
f 422 	603 	599
f 610 	581 	580
f 556 	611 	596
f 560 	665 	660
f 581 	549 	534
f 609 	522 	517
f 539 	612 	604
f 572 	611 	556
f 603 	431 	414
f 517 	608 	605
f 612 	614 	604
f 611 	615 	596
f 581 	610 	549
f 603 	422 	431
f 546 	567 	501
f 621 	620 	527
f 614 	607 	604
f 624 	628 	613
f 600 	596 	615
f 609 	521 	522
f 619 	507 	504
f 504 	618 	619
f 614 	609 	607
f 507 	619 	621
f 612 	160 	614
f 527 	620 	622
f 616 	613 	628
f 637 	620 	617
f 612 	158 	160
f 791 	611 	662
f 616 	659 	642
f 521 	609 	614
f 65 	601 	583
f 568 	660 	572
f 662 	572 	660
f 572 	662 	611
f 601 	678 	597
f 615 	611 	792
f 791 	792 	611
f 624 	674 	628
f 601 	681 	678
f 192 	674 	624
f 627 	448 	541
f 625 	598 	629
f 633 	626 	634
f 595 	598 	625
f 626 	807 	634
f 633 	635 	626
f 659 	616 	628
f 626 	635 	630
f 636 	632 	579
f 617 	631 	637
f 624 	608 	192
f 623 	677 	592
f 633 	634 	635
f 625 	623 	595
f 600 	638 	590
f 592 	595 	623
f 639 	374 	565
f 622 	620 	582
f 590 	638 	636
f 635 	493 	630
f 674 	676 	628
f 615 	1 	600
f 620 	637 	582
f 641 	565 	557
f 622 	582 	588
f 671 	619 	618
f 627 	622 	588
f 639 	565 	643
f 627 	588 	593
f 507 	621 	540
f 641 	643 	565
f 658 	640 	630
f 627 	593 	448
f 639 	647 	455
f 643 	647 	639
f 600 	1 	638
f 652 	643 	641
f 3 	1 	615
f 646 	830 	651
f 652 	656 	643
f 635 	634 	493
f 631 	661 	637
f 658 	630 	493
f 631 	657 	661
f 643 	656 	647
f 640 	663 	644
f 661 	599 	637
f 640 	658 	663
f 659 	666 	642
f 647 	737 	471
f 656 	737 	647
f 644 	533 	687
f 707 	664 	657
f 657 	664 	667
f 737 	486 	471
f 663 	533 	644
f 560 	317 	665
f 664 	816 	667
f 533 	539 	687
f 665 	668 	660
f 493 	505 	658
f 666 	646 	642
f 657 	667 	661
f 661 	669 	599
f 658 	468 	663
f 666 	830 	646
f 661 	667 	669
f 650 	623 	653
f 669 	422 	599
f 618 	670 	671
f 468 	552 	663
f 660 	668 	662
f 653 	625 	654
f 623 	625 	653
f 670 	689 	671
f 625 	629 	654
f 654 	629 	655
f 438 	508 	594
f 383 	508 	438
f 816 	664 	856
f 317 	324 	675
f 324 	694 	675
f 508 	509 	610
f 317 	675 	665
f 669 	771 	422
f 673 	677 	649
f 435 	679 	397
f 674 	200 	676
f 682 	397 	679
f 617 	619 	671
f 710 	679 	691
f 597 	678 	683
f 677 	650 	649
f 679 	686 	682
f 793 	116 	788
f 679 	710 	686
f 659 	628 	676
f 677 	623 	650
f 116 	793 	713
f 617 	671 	631
f 666 	659 	838
f 718 	116 	713
f 597 	683 	602
f 645 	116 	718
f 617 	621 	619
f 676 	838 	659
f 648 	116 	645
f 726 	644 	729
f 649 	116 	648
f 684 	682 	259
f 650 	116 	649
f 621 	617 	620
f 644 	687 	729
f 686 	259 	682
f 653 	116 	650
f 654 	116 	653
f 192 	197 	674
f 655 	116 	654
f 687 	672 	729
f 286 	287 	686
f 686 	287 	259
f 675 	680 	665
f 673 	672 	585
f 48 	116 	655
f 681 	698 	678
f 689 	670 	688
f 197 	200 	674
f 708 	683 	678
f 687 	585 	672
f 675 	700 	680
f 698 	708 	678
f 673 	586 	677
f 694 	700 	675
f 668 	665 	680
f 690 	576 	564
f 200 	208 	676
f 586 	673 	585
f 246 	252 	692
f 586 	592 	677
f 631 	671 	689
f 680 	746 	668
f 692 	690 	246
f 435 	691 	679
f 693 	695 	48
f 690 	696 	576
f 704 	691 	755
f 692 	696 	690
f 681 	697 	698
f 739 	656 	652
f 699 	701 	48
f 689 	707 	657
f 697 	717 	698
f 701 	703 	48
f 702 	692 	252
f 689 	657 	631
f 703 	784 	48
f 252 	260 	702
f 688 	707 	689
f 702 	709 	692
f 688 	706 	707
f 784 	786 	48
f 747 	683 	708
f 687 	539 	585
f 691 	704 	710
f 706 	712 	707
f 692 	709 	696
f 602 	705 	589
f 706 	711 	712
f 697 	714 	717
f 602 	685 	705
f 707 	712 	664
f 704 	715 	719
f 727 	260 	256
f 589 	705 	591
f 591 	721 	641
f 704 	719 	710
f 727 	732 	260
f 693 	722 	695
f 721 	591 	705
f 710 	286 	686
f 721 	652 	641
f 719 	286 	710
f 716 	722 	693
f 723 	713 	793
f 297 	719 	715
f 260 	732 	702
f 722 	724 	695
f 602 	683 	685
f 736 	709 	702
f 297 	715 	745
f 713 	723 	726
f 685 	725 	705
f 725 	685 	774
f 297 	301 	719
f 695 	724 	699
f 698 	749 	708
f 719 	301 	286
f 712 	856 	664
f 705 	725 	721
f 723 	640 	726
f 725 	728 	721
f 699 	756 	701
f 713 	726 	718
f 724 	756 	699
f 718 	729 	645
f 727 	256 	356
f 718 	726 	729
f 721 	728 	652
f 645 	672 	648
f 717 	714 	731
f 733 	731 	714
f 645 	729 	672
f 694 	339 	735
f 672 	673 	648
f 735 	700 	694
f 648 	673 	649
f 732 	736 	702
f 732 	727 	778
f 735 	767 	700
f 638 	733 	714
f 730 	715 	704
f 652 	728 	739
f 731 	733 	740
f 730 	738 	715
f 733 	16 	740
f 720 	626 	630
f 740 	817 	731
f 668 	796 	662
f 723 	720 	630
f 638 	16 	733
f 739 	744 	656
f 738 	745 	715
f 741 	743 	868
f 630 	640 	723
f 738 	742 	745
f 356 	772 	727
f 739 	829 	744
f 743 	21 	878
f 768 	772 	356
f 656 	744 	737
f 747 	685 	683
f 737 	495 	486
f 700 	748 	680
f 737 	744 	495
f 613 	616 	716
f 698 	717 	749
f 236 	314 	825
f 680 	748 	746
f 716 	616 	722
f 748 	750 	746
f 616 	642 	722
f 708 	749 	752
f 722 	642 	724
f 821 	751 	754
f 380 	411 	753
f 749 	762 	752
f 755 	422 	771
f 708 	752 	747
f 750 	806 	746
f 753 	385 	380
f 752 	779 	747
f 753 	760 	385
f 691 	431 	755
f 769 	750 	748
f 756 	759 	701
f 738 	730 	781
f 741 	757 	761
f 813 	762 	749
f 755 	730 	704
f 51 	764 	758
f 762 	783 	752
f 700 	767 	748
f 752 	783 	779
f 741 	761 	766
f 646 	756 	724
f 347 	768 	356
f 236 	825 	764
f 93 	94 	742
f 745 	742 	94
f 42 	766 	799
f 724 	642 	646
f 799 	809 	42
f 94 	297 	745
f 768 	347 	765
f 770 	236 	764
f 646 	651 	756
f 767 	769 	748
f 756 	651 	759
f 770 	238 	236
f 747 	774 	685
f 651 	883 	759
f 777 	238 	770
f 772 	778 	727
f 776 	495 	773
f 759 	883 	763
f 774 	747 	779
f 776 	757 	497
f 339 	424 	735
f 818 	775 	781
f 883 	884 	763
f 775 	794 	781
f 735 	429 	767
f 777 	782 	241
f 779 	9 	774
f 644 	726 	640
f 424 	429 	735
f 818 	781 	771
f 429 	436 	767
f 773 	780 	785
f 771 	781 	730
f 436 	769 	767
f 51 	754 	751
f 797 	801 	762
f 787 	48 	786
f 762 	801 	783
f 51 	758 	754
f 773 	785 	776
f 771 	730 	755
f 436 	475 	769
f 787 	789 	48
f 51 	770 	764
f 776 	785 	761
f 51 	777 	770
f 51 	782 	777
f 701 	759 	703
f 51 	216 	782
f 794 	775 	790
f 51 	221 	216
f 776 	761 	757
f 795 	720 	788
f 791 	662 	796
f 813 	797 	762
f 781 	794 	738
f 791 	798 	792
f 51 	229 	224
f 796 	798 	791
f 703 	763 	784
f 45 	229 	51
f 785 	780 	799
f 795 	626 	720
f 759 	763 	703
f 788 	720 	793
f 763 	803 	784
f 790 	804 	794
f 668 	746 	796
f 793 	720 	723
f 785 	799 	766
f 806 	796 	746
f 800 	804 	790
f 802 	811 	805
f 803 	786 	784
f 801 	13 	783
f 796 	806 	798
f 794 	804 	742
f 803 	808 	786
f 817 	896 	797
f 795 	807 	626
f 806 	819 	798
f 891 	801 	797
f 785 	766 	761
f 794 	742 	738
f 786 	808 	787
f 812 	789 	787
f 491 	634 	807
f 800 	143 	804
f 144 	804 	143
f 731 	813 	717
f 3 	615 	792
f 93 	742 	144
f 144 	742 	804
f 808 	812 	787
f 811 	802 	810
f 3 	792 	815
f 717 	813 	749
f 812 	880 	789
f 805 	811 	314
f 798 	815 	792
f 807 	814 	491
f 813 	731 	817
f 818 	669 	667
f 815 	798 	819
f 667 	816 	818
f 266 	42 	809
f 817 	797 	813
f 771 	669 	818
f 750 	820 	806
f 789 	880 	54
f 725 	867 	728
f 811 	810 	823
f 810 	821 	823
f 806 	820 	819
f 867 	725 	774
f 814 	496 	491
f 856 	822 	816
f 884 	803 	763
f 816 	775 	818
f 896 	817 	740
f 732 	826 	736
f 814 	824 	496
f 811 	825 	314
f 811 	823 	825
f 732 	778 	826
f 816 	822 	775
f 870 	739 	728
f 891 	797 	896
f 808 	7 	812
f 870 	829 	739
f 411 	409 	45
f 812 	10 	880
f 62 	28 	827
f 754 	823 	821
f 823 	758 	825
f 45 	753 	411
f 822 	828 	790
f 744 	829 	773
f 823 	754 	758
f 829 	780 	773
f 825 	758 	764
f 829 	834 	780
f 828 	800 	790
f 801 	892 	13
f 744 	773 	495
f 830 	832 	651
f 831 	32 	833
f 875 	740 	20
f 16 	20 	740
f 822 	790 	775
f 482 	878 	23
f 831 	835 	2
f 896 	740 	875
f 833 	835 	831
f 772 	45 	778
f 12 	2 	835
f 839 	833 	39
f 23 	485 	482
f 834 	829 	870
f 45 	826 	778
f 23 	837 	485
f 666 	840 	830
f 47 	839 	39
f 839 	842 	833
f 666 	838 	840
f 134 	709 	736
f 800 	828 	836
f 841 	447 	837
f 830 	844 	832
f 833 	842 	835
f 842 	15 	835
f 769 	847 	750
f 840 	844 	830
f 834 	843 	849
f 879 	483 	836
f 844 	869 	832
f 750 	847 	820
f 345 	800 	836
f 143 	800 	345
f 826 	140 	736
f 835 	15 	12
f 850 	711 	734
f 475 	847 	769
f 834 	849 	780
f 712 	711 	850
f 45 	489 	488
f 846 	853 	845
f 849 	799 	780
f 409 	489 	45
f 852 	462 	841
f 850 	856 	712
f 846 	855 	853
f 839 	47 	851
f 8 	854 	843
f 852 	862 	462
f 853 	857 	845
f 851 	858 	839
f 45 	760 	753
f 854 	8 	18
f 841 	462 	447
f 45 	765 	760
f 676 	208 	838
f 68 	858 	851
f 843 	854 	859
f 838 	860 	840
f 45 	768 	765
f 524 	854 	18
f 45 	772 	768
f 860 	838 	208
f 842 	839 	858
f 524 	566 	854
f 845 	857 	848
f 850 	734 	863
f 842 	180 	15
f 861 	862 	852
f 734 	741 	863
f 843 	859 	849
f 858 	180 	842
f 849 	859 	809
f 45 	69 	140
f 45 	140 	826
f 850 	864 	856
f 860 	871 	840
f 420 	68 	413
f 851 	413 	68
f 865 	866 	861
f 850 	863 	864
f 849 	809 	799
f 856 	864 	822
f 293 	860 	208
f 470 	831 	2
f 855 	329 	330
f 859 	854 	566
f 861 	866 	862
f 822 	864 	828
f 859 	566 	809
f 75 	860 	293
f 855 	330 	853
f 802 	805 	865
f 741 	868 	863
f 865 	805 	866
f 116 	506 	788
f 857 	853 	333
f 876 	815 	881
f 805 	302 	866
f 853 	330 	333
f 867 	870 	728
f 863 	868 	872
f 333 	442 	857
f 840 	871 	844
f 195 	517 	522
f 774 	9 	867
f 868 	879 	872
f 195 	522 	526
f 225 	526 	530
f 863 	872 	864
f 855 	847 	329
f 871 	873 	844
f 227 	225 	536
f 530 	536 	225
f 867 	874 	870
f 536 	102 	227
f 871 	528 	873
f 75 	528 	871
f 295 	419 	504
f 103 	553 	332
f 864 	872 	828
f 874 	867 	9
f 419 	670 	618
f 20 	876 	877
f 844 	873 	869
f 553 	555 	332
f 874 	834 	870
f 869 	499 	30
f 8 	874 	9
f 869 	873 	499
f 874 	843 	834
f 878 	868 	743
f 8 	843 	874
f 879 	868 	878
f 20 	877 	875
f 655 	693 	48
f 871 	860 	75
f 872 	836 	828
f 779 	783 	6
f 877 	897 	875
f 783 	13 	6
f 598 	613 	629
f 872 	879 	836
f 598 	608 	613
f 624 	613 	608
f 532 	499 	873
f 517 	192 	608
f 6 	9 	779
f 528 	532 	873
f 6 	8 	9
f 345 	836 	483
f 881 	882 	876
f 54 	880 	60
f 881 	845 	882
f 741 	766 	743
f 766 	21 	743
f 512 	315 	60
f 877 	876 	882
f 63 	535 	60
f 803 	5 	808
f 178 	852 	841
f 92 	357 	421
f 5 	803 	884
f 852 	178 	861
f 439 	421 	361
f 808 	5 	7
f 7 	10 	812
f 880 	63 	60
f 523 	795 	506
f 788 	506 	795
f 10 	63 	880
f 795 	523 	807
f 697 	681 	632
f 618 	504 	419
f 881 	846 	845
f 636 	697 	632
f 651 	832 	883
f 848 	887 	882
f 706 	688 	492
f 883 	832 	885
f 845 	848 	882
f 883 	885 	884
f 402 	684 	827
f 885 	17 	884
f 885 	832 	869
f 869 	30 	885
f 23 	171 	837
f 801 	891 	892
f 885 	30 	17
f 171 	841 	837
f 841 	174 	178
f 601 	65 	66
f 17 	5 	884
f 861 	178 	179
f 681 	601 	519
f 179 	865 	861
f 475 	477 	343
f 810 	802 	112
f 477 	478 	343
f 469 	59 	474
f 112 	821 	810
f 478 	480 	308
f 40 	751 	821
f 480 	463 	308
f 479 	474 	177
f 40 	41 	751
f 295 	504 	126
f 714 	636 	638
f 437 	492 	688
f 706 	492 	711
f 500 	711 	492
f 877 	882 	887
f 62 	684 	404
f 711 	500 	734
f 259 	406 	404
f 329 	847 	475
f 55 	315 	48
f 92 	101 	357
f 55 	60 	315
f 512 	60 	535
f 357 	361 	421
f 535 	63 	65
f 361 	24 	461
f 439 	361 	461
f 66 	519 	601
f 475 	343 	329
f 459 	807 	523
f 459 	367 	807
f 814 	807 	367
f 463 	56 	308
f 56 	463 	41
f 367 	824 	814
f 887 	889 	888
f 402 	827 	824
f 519 	632 	681
f 636 	714 	697
f 876 	20 	815
f 62 	827 	684
f 887 	848 	889
f 819 	881 	815
f 881 	819 	820
f 259 	404 	684
f 126 	157 	295
f 24 	465 	461
f 419 	428 	670
f 437 	688 	670
f 428 	437 	670
f 469 	49 	59
f 857 	890 	848
f 857 	442 	890
f 890 	889 	848
f 890 	432 	889
f 890 	445 	432
f 891 	893 	892
f 886 	893 	891
f 893 	886 	894
f 888 	894 	886
f 889 	895 	888
f 888 	895 	894
f 594 	894 	895
f 432 	895 	889
f 432 	438 	895
f 438 	594 	895
f 875 	897 	896
f 896 	886 	891
f 897 	886 	896
f 897 	877 	887
f 887 	888 	897
f 897 	888 	886
f 892 	570 	13
f 893 	574 	892
f 892 	574 	570
f 580 	574 	893
f 894 	580 	893
# 1790 faces

 #end of obj_0

